<?xml version="1.0" encoding="UTF-8"?>
<svg width="1000px" height="215px" viewBox="0 0 1000 215" version="1.1" xmlns="http://www.w3.org/2000/svg" xmlns:xlink="http://www.w3.org/1999/xlink">
    <title>Group 8</title>
    <defs>
        <polygon id="path-1" points="0 214.719 1000 214.719 1000 0.004 0 0.004"></polygon>
    </defs>
    <g id="Symbols" stroke="none" stroke-width="1" fill="none" fill-rule="evenodd">
        <g id="Group">
            <path d="M532.292,84.167 C527.832,79.282 525.397,72.527 525.397,64.692 C525.397,56.652 528.122,49.537 533.012,44.652 C537.252,40.337 543.212,37.822 550.612,37.822 C563.832,37.822 571.737,44.867 573.387,55.642 L561.032,55.642 C560.097,51.477 556.647,48.317 551.042,48.317 C542.567,48.317 538.327,55.357 538.327,64.692 C538.327,74.107 543.212,81.077 551.257,81.077 C557.942,81.077 561.892,76.622 562.397,72.097 L562.397,71.952 L552.772,71.952 L552.772,62.612 L574.177,62.612 L574.177,90.202 L565.272,90.202 L564.552,84.022 L564.407,84.022 C561.032,89.267 556.002,91.352 549.822,91.352 C542.492,91.352 536.532,88.762 532.292,84.167" id="Fill-1" fill="#FFFFFF"></path>
            <mask id="mask-2" fill="white">
                <use xlink:href="#path-1"></use>
            </mask>
            <g id="Clip-4"></g>
            <polygon id="Fill-3" fill="#FFFFFF" mask="url(#mask-2)" points="579.36 90.204 591.215 90.204 591.215 38.834 579.36 38.834"></polygon>
            <path d="M594.9895,71.879 C594.9895,60.814 602.8945,52.409 614.6795,52.409 C626.5345,52.409 634.2895,60.814 634.2895,71.879 C634.2895,82.944 626.5345,91.354 614.6795,91.354 C602.8945,91.354 594.9895,82.944 594.9895,71.879 M622.4345,71.879 C622.4345,65.199 619.7045,60.669 614.6045,60.669 C609.5045,60.669 606.8445,65.199 606.8445,71.879 C606.8445,78.559 609.5045,83.019 614.6045,83.019 C619.7045,83.019 622.4345,78.559 622.4345,71.879" id="Fill-5" fill="#FFFFFF" mask="url(#mask-2)"></path>
            <path d="M649.2745,85.5315 L649.1295,85.5315 L649.1295,90.2015 L637.9195,90.2015 L637.9195,38.8315 L649.6345,38.8315 L649.6345,57.5815 L649.8495,57.5815 C652.1495,54.4215 655.3095,52.3365 660.3395,52.3365 C669.8945,52.3365 676.0745,60.7415 676.0745,71.8065 C676.0745,84.0215 669.8945,91.3515 660.4095,91.3515 C655.5245,91.3515 651.5695,89.3415 649.2745,85.5315 M664.2195,71.7365 C664.2195,65.4115 661.7045,61.2515 656.9645,61.2515 C651.7895,61.2515 649.2745,65.7715 649.2745,71.8065 C649.2745,77.9165 652.2895,82.0865 657.1045,82.0865 C661.7045,82.0865 664.2195,78.1315 664.2195,71.7365" id="Fill-6" fill="#FFFFFF" mask="url(#mask-2)"></path>
            <path d="M678.2635,79.926 C678.2635,71.806 684.7285,69.366 692.3435,68.361 C699.2435,67.496 701.6885,66.781 701.6885,64.266 C701.6885,61.896 700.1785,60.311 696.6585,60.311 C692.9235,60.311 691.0535,61.966 690.6935,65.051 L679.9185,65.051 C680.2035,58.231 685.4485,52.411 696.5835,52.411 C702.1185,52.411 705.8535,53.416 708.5085,55.431 C711.6735,57.726 713.1835,61.316 713.1835,65.916 L713.1835,84.456 C713.1835,87.401 713.4685,89.051 714.4785,89.701 L714.4785,90.201 L703.1235,90.201 C702.5485,89.411 702.1885,87.976 701.9035,86.106 L701.7585,86.106 C699.6035,89.196 696.3685,91.136 690.8385,91.136 C683.5085,91.136 678.2635,87.186 678.2635,79.926 M701.9735,77.056 L701.9735,72.671 C700.4635,73.461 698.3085,74.036 695.9385,74.611 C691.4085,75.616 689.5435,76.766 689.5435,79.571 C689.5435,82.516 691.6985,83.666 694.5735,83.666 C698.9535,83.666 701.9735,81.006 701.9735,77.056" id="Fill-7" fill="#FFFFFF" mask="url(#mask-2)"></path>
            <polygon id="Fill-8" fill="#FFFFFF" mask="url(#mask-2)" points="717.98 90.204 729.835 90.204 729.835 38.834 717.98 38.834"></polygon>
            <path d="M529.3135,99.274 L551.2235,99.274 C565.4535,99.274 575.0085,109.549 575.0085,125.284 C575.0085,134.334 571.8435,141.589 566.0985,145.974 C562.0735,148.989 556.9035,150.644 550.4385,150.644 L529.3135,150.644 L529.3135,99.274 Z M549.5035,139.939 C557.8385,139.939 562.1485,134.694 562.1485,125.284 C562.1485,115.939 557.6235,109.909 549.6435,109.909 L542.0285,109.909 L542.0285,139.939 L549.5035,139.939 Z" id="Fill-9" fill="#FFFFFF" mask="url(#mask-2)"></path>
            <path d="M579.37,108.759 L591.08,108.759 L591.08,99.274 L579.37,99.274 L579.37,108.759 Z M579.37,150.644 L591.08,150.644 L591.08,113.859 L579.37,113.859 L579.37,150.644 Z" id="Fill-10" fill="#FFFFFF" mask="url(#mask-2)"></path>
            <path d="M594.55,138.7175 L605.615,138.7175 C606.045,142.3775 608.49,144.1775 612.365,144.1775 C615.89,144.1775 618.115,142.8825 618.115,140.5125 C618.115,137.2075 613.66,136.8475 608.775,135.9875 C602.38,134.9075 595.555,133.1875 595.555,124.5625 C595.555,116.8025 602.74,112.7825 611.435,112.7825 C621.85,112.7825 627.455,117.3075 628.03,124.5625 L617.255,124.5625 C616.825,121.2575 614.595,120.2525 611.365,120.2525 C608.49,120.2525 606.26,121.3325 606.26,123.6275 C606.26,126.2175 610.425,126.5725 615.1,127.4375 C621.565,128.5175 629.18,130.1675 629.18,139.5775 C629.18,147.6275 622.07,151.7925 612.44,151.7925 C601.665,151.7925 594.91,146.8375 594.55,138.7175" id="Fill-11" fill="#FFFFFF" mask="url(#mask-2)"></path>
            <path d="M632.815,108.759 L644.53,108.759 L644.53,99.274 L632.815,99.274 L632.815,108.759 Z M632.815,150.644 L644.53,150.644 L644.53,113.859 L632.815,113.859 L632.815,150.644 Z" id="Fill-12" fill="#FFFFFF" mask="url(#mask-2)"></path>
            <path d="M650.058,113.859 L661.338,113.859 L661.338,118.889 L661.553,118.889 C664.288,114.939 667.803,112.779 672.903,112.779 C680.953,112.779 685.693,118.529 685.693,126.719 L685.693,150.644 L673.983,150.644 L673.983,129.089 C673.983,125.209 672.043,122.554 668.238,122.554 C664.353,122.554 661.768,125.784 661.768,130.314 L661.768,150.644 L650.058,150.644 L650.058,113.859 Z" id="Fill-13" fill="#FFFFFF" mask="url(#mask-2)"></path>
            <path d="M693.005,121.3325 L688.26,121.3325 L688.26,113.8575 L693.005,113.8575 L693.005,111.2025 C693.005,107.3925 694.085,104.5925 696.025,102.6525 C699.185,99.5625 705.295,98.8425 711.615,99.4875 L711.615,107.7525 C707.16,107.6075 704.72,107.9675 704.72,112.0625 L704.72,113.8575 L711.615,113.8575 L711.615,121.3325 L704.72,121.3325 L704.72,150.6425 L693.005,150.6425 L693.005,121.3325 Z" id="Fill-14" fill="#FFFFFF" mask="url(#mask-2)"></path>
            <path d="M711.474,132.3235 C711.474,121.2585 719.379,112.8535 731.164,112.8535 C743.019,112.8535 750.774,121.2585 750.774,132.3235 C750.774,143.3885 743.019,151.7935 731.164,151.7935 C719.379,151.7935 711.474,143.3885 711.474,132.3235 M738.919,132.3235 C738.919,125.6435 736.189,121.1135 731.089,121.1135 C725.989,121.1135 723.329,125.6435 723.329,132.3235 C723.329,139.0035 725.989,143.4585 731.089,143.4585 C736.189,143.4585 738.919,139.0035 738.919,132.3235" id="Fill-15" fill="#FFFFFF" mask="url(#mask-2)"></path>
            <path d="M754.6335,113.859 L765.8435,113.859 L765.8435,119.604 L766.0585,119.604 C768.6435,115.224 771.6635,113.284 776.1185,113.284 C777.1985,113.284 777.9135,113.354 778.4185,113.569 L778.4185,123.629 L778.1285,123.629 C770.9435,122.624 766.3485,126.144 766.3485,134.119 L766.3485,150.644 L754.6335,150.644 L754.6335,113.859 Z" id="Fill-16" fill="#FFFFFF" mask="url(#mask-2)"></path>
            <path d="M781.5545,113.859 L792.7645,113.859 L792.7645,119.104 L792.9795,119.104 C795.2795,115.294 798.7995,112.779 804.1145,112.779 C808.9295,112.779 812.5945,115.294 814.4595,119.244 L814.6045,119.244 C817.4795,114.794 821.4295,112.779 826.1745,112.779 C834.5095,112.779 838.6745,118.454 838.6745,126.719 L838.6745,150.644 L826.9645,150.644 L826.9645,128.804 C826.9645,124.849 825.3095,122.554 821.7895,122.554 C818.0545,122.554 815.9695,125.639 815.9695,130.024 L815.9695,150.644 L804.2595,150.644 L804.2595,128.804 C804.2595,124.849 802.6045,122.554 799.0845,122.554 C795.4195,122.554 793.2645,125.639 793.2645,130.024 L793.2645,150.644 L781.5545,150.644 L781.5545,113.859 Z" id="Fill-17" fill="#FFFFFF" mask="url(#mask-2)"></path>
            <path d="M842.0845,140.3705 C842.0845,132.2505 848.5495,129.8105 856.1645,128.8055 C863.0645,127.9405 865.5045,127.2255 865.5045,124.7105 C865.5045,122.3355 863.9945,120.7555 860.4745,120.7555 C856.7395,120.7555 854.8695,122.4055 854.5145,125.4955 L843.7345,125.4955 C844.0245,118.6705 849.2695,112.8555 860.4045,112.8555 C865.9395,112.8555 869.6745,113.8605 872.3295,115.8705 C875.4945,118.1705 876.9995,121.7605 876.9995,126.3605 L876.9995,144.8955 C876.9995,147.8455 877.2895,149.4955 878.2945,150.1405 L878.2945,150.6455 L866.9445,150.6455 C866.3645,149.8555 866.0095,148.4155 865.7195,146.5505 L865.5795,146.5505 C863.4245,149.6405 860.1895,151.5805 854.6595,151.5805 C847.3245,151.5805 842.0845,147.6305 842.0845,140.3705 M865.7945,137.4955 L865.7945,133.1155 C864.2845,133.9055 862.1295,134.4805 859.7595,135.0555 C855.2295,136.0605 853.3595,137.2105 853.3595,140.0105 C853.3595,142.9555 855.5195,144.1055 858.3945,144.1055 C862.7745,144.1055 865.7945,141.4455 865.7945,137.4955" id="Fill-18" fill="#FFFFFF" mask="url(#mask-2)"></path>
            <path d="M884.0865,140.944 L884.0865,121.189 L879.1965,121.189 L879.1965,113.859 L884.0865,113.859 L884.0865,102.219 L895.5065,102.219 L895.5065,113.859 L902.1915,113.859 L902.1915,121.189 L895.5065,121.189 L895.5065,138.429 C895.5065,141.304 897.0915,142.024 899.6065,142.024 C900.6115,142.024 901.7615,141.949 902.1915,141.949 L902.1915,150.504 C901.1865,150.789 898.9615,151.074 895.7965,151.074 C888.9715,151.074 884.0865,148.849 884.0865,140.944" id="Fill-19" fill="#FFFFFF" mask="url(#mask-2)"></path>
            <path d="M906.21,108.759 L917.925,108.759 L917.925,99.274 L906.21,99.274 L906.21,108.759 Z M906.21,150.644 L917.925,150.644 L917.925,113.859 L906.21,113.859 L906.21,150.644 Z" id="Fill-20" fill="#FFFFFF" mask="url(#mask-2)"></path>
            <path d="M921.4325,132.3235 C921.4325,121.2585 929.3375,112.8535 941.1175,112.8535 C952.9775,112.8535 960.7325,121.2585 960.7325,132.3235 C960.7325,143.3885 952.9775,151.7935 941.1175,151.7935 C929.3375,151.7935 921.4325,143.3885 921.4325,132.3235 M948.8775,132.3235 C948.8775,125.6435 946.1475,121.1135 941.0475,121.1135 C935.9475,121.1135 933.2875,125.6435 933.2875,132.3235 C933.2875,139.0035 935.9475,143.4585 941.0475,143.4585 C946.1475,143.4585 948.8775,139.0035 948.8775,132.3235" id="Fill-21" fill="#FFFFFF" mask="url(#mask-2)"></path>
            <path d="M964.3625,113.859 L975.6425,113.859 L975.6425,118.889 L975.8625,118.889 C978.5925,114.939 982.1075,112.779 987.2125,112.779 C995.2575,112.779 999.9975,118.529 999.9975,126.719 L999.9975,150.644 L988.2875,150.644 L988.2875,129.089 C988.2875,125.209 986.3475,122.554 982.5425,122.554 C978.6625,122.554 976.0775,125.784 976.0775,130.314 L976.0775,150.644 L964.3625,150.644 L964.3625,113.859 Z" id="Fill-22" fill="#FFFFFF" mask="url(#mask-2)"></path>
            <polygon id="Fill-23" fill="#FFFFFF" mask="url(#mask-2)" points="529.385 209.934 542.1 209.934 542.1 158.564 529.385 158.564"></polygon>
            <path d="M547.536,173.151 L558.816,173.151 L558.816,178.181 L559.031,178.181 C561.766,174.231 565.281,172.076 570.381,172.076 C578.431,172.076 583.171,177.821 583.171,186.011 L583.171,209.936 L571.461,209.936 L571.461,188.381 C571.461,184.506 569.521,181.846 565.716,181.846 C561.831,181.846 559.251,185.081 559.251,189.606 L559.251,209.936 L547.536,209.936 L547.536,173.151 Z" id="Fill-24" fill="#FFFFFF" mask="url(#mask-2)"></path>
            <path d="M586.8915,191.5445 C586.8915,180.0495 593.5015,172.0745 602.9865,172.0745 C608.1565,172.0745 611.1065,174.2295 613.2615,177.3195 L613.4765,177.3195 L613.4765,158.5645 L625.1865,158.5645 L625.1865,209.9395 L613.9815,209.9395 L613.9815,204.9795 L613.8365,204.9795 C611.6065,208.7895 607.8015,211.0895 602.9865,211.0895 C593.5765,211.0895 586.8915,203.8295 586.8915,191.5445 M613.7665,191.5445 C613.7665,185.3645 611.2515,180.9095 606.1515,180.9095 C601.4765,180.9095 598.7465,185.2245 598.7465,191.3995 C598.7465,197.7945 601.4765,201.8195 606.0015,201.8195 C610.8915,201.8195 613.7665,197.5795 613.7665,191.5445" id="Fill-25" fill="#FFFFFF" mask="url(#mask-2)"></path>
            <path d="M629.045,191.474 C629.045,180.479 636.735,172.074 647.94,172.074 C653.185,172.074 657.355,173.799 660.51,176.674 C664.895,180.699 667.055,187.089 666.98,194.564 L640.54,194.564 C641.26,199.519 643.99,202.609 648.805,202.609 C651.89,202.609 653.905,201.244 654.91,198.944 L666.335,198.944 C665.545,202.249 663.39,205.414 660.155,207.639 C657.065,209.794 653.33,211.019 648.66,211.019 C636.52,211.019 629.045,202.609 629.045,191.474 L629.045,191.474 Z M655.125,187.594 C654.695,183.214 651.965,180.409 648.155,180.409 C643.705,180.409 641.405,183.214 640.61,187.594 L655.125,187.594 Z" id="Fill-26" fill="#FFFFFF" mask="url(#mask-2)"></path>
            <polygon id="Fill-27" fill="#FFFFFF" mask="url(#mask-2)" points="677.2455 190.6095 665.6805 173.1545 679.0405 173.1545 684.5055 182.6345 684.6455 182.6345 689.8205 173.1545 702.1055 173.1545 691.1855 190.4645 703.6855 209.9395 690.1055 209.9395 684.0705 198.9445 683.9255 198.9445 677.2455 209.9395 664.4555 209.9395"></polygon>
            <path d="M27.6705,185.9 C9.7955,166.3 0.0005,139.21 0.0005,107.795 C0.0005,75.515 10.9505,46.98 30.5505,27.38 C47.5555,10.09 71.4755,0 101.1605,0 C154.1955,0 185.8955,28.245 192.5255,71.48 L142.9555,71.48 C139.2055,54.765 125.3755,42.08 102.8905,42.08 C68.8805,42.08 51.8805,70.325 51.8805,107.795 C51.8805,145.55 71.4755,173.505 103.7555,173.505 C130.5605,173.505 146.4105,155.635 148.4255,137.48 L148.4255,136.905 L109.8105,136.905 L109.8105,99.435 L195.6955,99.435 L195.6955,210.11 L159.9605,210.11 L157.0755,185.325 L156.5005,185.325 C142.9555,206.36 122.7805,214.72 97.9905,214.72 C68.5955,214.72 44.6705,204.345 27.6705,185.9" id="Fill-28" fill="#FFFFFF" mask="url(#mask-2)"></path>
            <polygon id="Fill-29" fill="#FFFFFF" mask="url(#mask-2)" points="429.515 210.109 480.53 210.109 480.53 4.039 429.515 4.039"></polygon>
            <path d="M415.3215,99.4355 C411.8565,41.4005 374.5365,4.0405 320.2165,4.0405 L232.3065,4.0405 L232.3065,99.4355 L214.8765,99.4355 L214.8765,210.1105 L299.6115,210.1105 C325.5515,210.1105 346.3015,203.4805 362.4415,191.3755 C385.5015,173.7955 398.1815,144.6855 398.1815,108.3705 C398.1815,105.3355 398.0615,102.3655 397.8915,99.4355 L415.3215,99.4355 Z M363.6465,99.4355 L346.2165,99.4355 C346.4565,102.3255 346.5915,105.2955 346.5915,108.3705 C346.5915,146.1255 329.2965,167.1655 295.8665,167.1655 L265.8915,167.1655 L265.8915,99.4355 L283.3265,99.4355 L283.3265,46.6955 L313.8715,46.6955 C343.2415,46.6955 360.9365,67.1055 363.6465,99.4355 L363.6465,99.4355 Z" id="Fill-30" fill="#FFFFFF" mask="url(#mask-2)"></path>
        </g>
    </g>
</svg>