<?xml version="1.0" encoding="UTF-8"?>
<svg width="1000px" height="215px" viewBox="0 0 1000 215" version="1.1" xmlns="http://www.w3.org/2000/svg" xmlns:xlink="http://www.w3.org/1999/xlink">
    <title>Group 18</title>
    <defs>
        <polygon id="path-1" points="0 214.715 1000 214.715 1000 0 0 0"></polygon>
    </defs>
    <g id="Symbols" stroke="none" stroke-width="1" fill="none" fill-rule="evenodd">
        <g id="Group-18" transform="translate(0.000000, 0.004000)">
            <path d="M532.292,84.163 C527.832,79.278 525.397,72.523 525.397,64.688 C525.397,56.648 528.122,49.533 533.012,44.648 C537.252,40.333 543.212,37.818 550.612,37.818 C563.832,37.818 571.737,44.863 573.387,55.638 L561.032,55.638 C560.097,51.473 556.647,48.313 551.042,48.313 C542.567,48.313 538.327,55.353 538.327,64.688 C538.327,74.103 543.212,81.073 551.257,81.073 C557.942,81.073 561.892,76.618 562.397,72.093 L562.397,71.948 L552.772,71.948 L552.772,62.608 L574.177,62.608 L574.177,90.198 L565.272,90.198 L564.552,84.018 L564.407,84.018 C561.032,89.263 556.002,91.348 549.822,91.348 C542.492,91.348 536.532,88.758 532.292,84.163" id="Fill-1" fill="#000000"></path>
            <mask id="mask-2" fill="white">
                <use xlink:href="#path-1"></use>
            </mask>
            <g id="Clip-4"></g>
            <polygon id="Fill-3" fill="#000000" mask="url(#mask-2)" points="579.36 90.2 591.215 90.2 591.215 38.83 579.36 38.83"></polygon>
            <path d="M594.9895,71.875 C594.9895,60.81 602.8945,52.405 614.6795,52.405 C626.5345,52.405 634.2895,60.81 634.2895,71.875 C634.2895,82.94 626.5345,91.35 614.6795,91.35 C602.8945,91.35 594.9895,82.94 594.9895,71.875 M622.4345,71.875 C622.4345,65.195 619.7045,60.665 614.6045,60.665 C609.5045,60.665 606.8445,65.195 606.8445,71.875 C606.8445,78.555 609.5045,83.015 614.6045,83.015 C619.7045,83.015 622.4345,78.555 622.4345,71.875" id="Fill-5" fill="#000000" mask="url(#mask-2)"></path>
            <path d="M649.2745,85.5275 L649.1295,85.5275 L649.1295,90.1975 L637.9195,90.1975 L637.9195,38.8275 L649.6345,38.8275 L649.6345,57.5775 L649.8495,57.5775 C652.1495,54.4175 655.3095,52.3325 660.3395,52.3325 C669.8945,52.3325 676.0745,60.7375 676.0745,71.8025 C676.0745,84.0175 669.8945,91.3475 660.4095,91.3475 C655.5245,91.3475 651.5695,89.3375 649.2745,85.5275 M664.2195,71.7325 C664.2195,65.4075 661.7045,61.2475 656.9645,61.2475 C651.7895,61.2475 649.2745,65.7675 649.2745,71.8025 C649.2745,77.9125 652.2895,82.0825 657.1045,82.0825 C661.7045,82.0825 664.2195,78.1275 664.2195,71.7325" id="Fill-6" fill="#000000" mask="url(#mask-2)"></path>
            <path d="M678.2635,79.922 C678.2635,71.802 684.7285,69.362 692.3435,68.357 C699.2435,67.492 701.6885,66.777 701.6885,64.262 C701.6885,61.892 700.1785,60.307 696.6585,60.307 C692.9235,60.307 691.0535,61.962 690.6935,65.047 L679.9185,65.047 C680.2035,58.227 685.4485,52.407 696.5835,52.407 C702.1185,52.407 705.8535,53.412 708.5085,55.427 C711.6735,57.722 713.1835,61.312 713.1835,65.912 L713.1835,84.452 C713.1835,87.397 713.4685,89.047 714.4785,89.697 L714.4785,90.197 L703.1235,90.197 C702.5485,89.407 702.1885,87.972 701.9035,86.102 L701.7585,86.102 C699.6035,89.192 696.3685,91.132 690.8385,91.132 C683.5085,91.132 678.2635,87.182 678.2635,79.922 M701.9735,77.052 L701.9735,72.667 C700.4635,73.457 698.3085,74.032 695.9385,74.607 C691.4085,75.612 689.5435,76.762 689.5435,79.567 C689.5435,82.512 691.6985,83.662 694.5735,83.662 C698.9535,83.662 701.9735,81.002 701.9735,77.052" id="Fill-7" fill="#000000" mask="url(#mask-2)"></path>
            <polygon id="Fill-8" fill="#000000" mask="url(#mask-2)" points="717.98 90.2 729.835 90.2 729.835 38.83 717.98 38.83"></polygon>
            <path d="M529.3135,99.27 L551.2235,99.27 C565.4535,99.27 575.0085,109.545 575.0085,125.28 C575.0085,134.33 571.8435,141.585 566.0985,145.97 C562.0735,148.985 556.9035,150.64 550.4385,150.64 L529.3135,150.64 L529.3135,99.27 Z M549.5035,139.935 C557.8385,139.935 562.1485,134.69 562.1485,125.28 C562.1485,115.935 557.6235,109.905 549.6435,109.905 L542.0285,109.905 L542.0285,139.935 L549.5035,139.935 Z" id="Fill-9" fill="#000000" mask="url(#mask-2)"></path>
            <path d="M579.37,108.755 L591.08,108.755 L591.08,99.27 L579.37,99.27 L579.37,108.755 Z M579.37,150.64 L591.08,150.64 L591.08,113.855 L579.37,113.855 L579.37,150.64 Z" id="Fill-10" fill="#000000" mask="url(#mask-2)"></path>
            <path d="M594.55,138.7135 L605.615,138.7135 C606.045,142.3735 608.49,144.1735 612.365,144.1735 C615.89,144.1735 618.115,142.8785 618.115,140.5085 C618.115,137.2035 613.66,136.8435 608.775,135.9835 C602.38,134.9035 595.555,133.1835 595.555,124.5585 C595.555,116.7985 602.74,112.7785 611.435,112.7785 C621.85,112.7785 627.455,117.3035 628.03,124.5585 L617.255,124.5585 C616.825,121.2535 614.595,120.2485 611.365,120.2485 C608.49,120.2485 606.26,121.3285 606.26,123.6235 C606.26,126.2135 610.425,126.5685 615.1,127.4335 C621.565,128.5135 629.18,130.1635 629.18,139.5735 C629.18,147.6235 622.07,151.7885 612.44,151.7885 C601.665,151.7885 594.91,146.8335 594.55,138.7135" id="Fill-11" fill="#000000" mask="url(#mask-2)"></path>
            <path d="M632.815,108.755 L644.53,108.755 L644.53,99.27 L632.815,99.27 L632.815,108.755 Z M632.815,150.64 L644.53,150.64 L644.53,113.855 L632.815,113.855 L632.815,150.64 Z" id="Fill-12" fill="#000000" mask="url(#mask-2)"></path>
            <path d="M650.058,113.855 L661.338,113.855 L661.338,118.885 L661.553,118.885 C664.288,114.935 667.803,112.775 672.903,112.775 C680.953,112.775 685.693,118.525 685.693,126.715 L685.693,150.64 L673.983,150.64 L673.983,129.085 C673.983,125.205 672.043,122.55 668.238,122.55 C664.353,122.55 661.768,125.78 661.768,130.31 L661.768,150.64 L650.058,150.64 L650.058,113.855 Z" id="Fill-13" fill="#000000" mask="url(#mask-2)"></path>
            <path d="M693.005,121.3285 L688.26,121.3285 L688.26,113.8535 L693.005,113.8535 L693.005,111.1985 C693.005,107.3885 694.085,104.5885 696.025,102.6485 C699.185,99.5585 705.295,98.8385 711.615,99.4835 L711.615,107.7485 C707.16,107.6035 704.72,107.9635 704.72,112.0585 L704.72,113.8535 L711.615,113.8535 L711.615,121.3285 L704.72,121.3285 L704.72,150.6385 L693.005,150.6385 L693.005,121.3285 Z" id="Fill-14" fill="#000000" mask="url(#mask-2)"></path>
            <path d="M711.474,132.3195 C711.474,121.2545 719.379,112.8495 731.164,112.8495 C743.019,112.8495 750.774,121.2545 750.774,132.3195 C750.774,143.3845 743.019,151.7895 731.164,151.7895 C719.379,151.7895 711.474,143.3845 711.474,132.3195 M738.919,132.3195 C738.919,125.6395 736.189,121.1095 731.089,121.1095 C725.989,121.1095 723.329,125.6395 723.329,132.3195 C723.329,138.9995 725.989,143.4545 731.089,143.4545 C736.189,143.4545 738.919,138.9995 738.919,132.3195" id="Fill-15" fill="#000000" mask="url(#mask-2)"></path>
            <path d="M754.6335,113.855 L765.8435,113.855 L765.8435,119.6 L766.0585,119.6 C768.6435,115.22 771.6635,113.28 776.1185,113.28 C777.1985,113.28 777.9135,113.35 778.4185,113.565 L778.4185,123.625 L778.1285,123.625 C770.9435,122.62 766.3485,126.14 766.3485,134.115 L766.3485,150.64 L754.6335,150.64 L754.6335,113.855 Z" id="Fill-16" fill="#000000" mask="url(#mask-2)"></path>
            <path d="M781.5545,113.855 L792.7645,113.855 L792.7645,119.1 L792.9795,119.1 C795.2795,115.29 798.7995,112.775 804.1145,112.775 C808.9295,112.775 812.5945,115.29 814.4595,119.24 L814.6045,119.24 C817.4795,114.79 821.4295,112.775 826.1745,112.775 C834.5095,112.775 838.6745,118.45 838.6745,126.715 L838.6745,150.64 L826.9645,150.64 L826.9645,128.8 C826.9645,124.845 825.3095,122.55 821.7895,122.55 C818.0545,122.55 815.9695,125.635 815.9695,130.02 L815.9695,150.64 L804.2595,150.64 L804.2595,128.8 C804.2595,124.845 802.6045,122.55 799.0845,122.55 C795.4195,122.55 793.2645,125.635 793.2645,130.02 L793.2645,150.64 L781.5545,150.64 L781.5545,113.855 Z" id="Fill-17" fill="#000000" mask="url(#mask-2)"></path>
            <path d="M842.0845,140.3665 C842.0845,132.2465 848.5495,129.8065 856.1645,128.8015 C863.0645,127.9365 865.5045,127.2215 865.5045,124.7065 C865.5045,122.3315 863.9945,120.7515 860.4745,120.7515 C856.7395,120.7515 854.8695,122.4015 854.5145,125.4915 L843.7345,125.4915 C844.0245,118.6665 849.2695,112.8515 860.4045,112.8515 C865.9395,112.8515 869.6745,113.8565 872.3295,115.8665 C875.4945,118.1665 876.9995,121.7565 876.9995,126.3565 L876.9995,144.8915 C876.9995,147.8415 877.2895,149.4915 878.2945,150.1365 L878.2945,150.6415 L866.9445,150.6415 C866.3645,149.8515 866.0095,148.4115 865.7195,146.5465 L865.5795,146.5465 C863.4245,149.6365 860.1895,151.5765 854.6595,151.5765 C847.3245,151.5765 842.0845,147.6265 842.0845,140.3665 M865.7945,137.4915 L865.7945,133.1115 C864.2845,133.9015 862.1295,134.4765 859.7595,135.0515 C855.2295,136.0565 853.3595,137.2065 853.3595,140.0065 C853.3595,142.9515 855.5195,144.1015 858.3945,144.1015 C862.7745,144.1015 865.7945,141.4415 865.7945,137.4915" id="Fill-18" fill="#000000" mask="url(#mask-2)"></path>
            <path d="M884.0865,140.94 L884.0865,121.185 L879.1965,121.185 L879.1965,113.855 L884.0865,113.855 L884.0865,102.215 L895.5065,102.215 L895.5065,113.855 L902.1915,113.855 L902.1915,121.185 L895.5065,121.185 L895.5065,138.425 C895.5065,141.3 897.0915,142.02 899.6065,142.02 C900.6115,142.02 901.7615,141.945 902.1915,141.945 L902.1915,150.5 C901.1865,150.785 898.9615,151.07 895.7965,151.07 C888.9715,151.07 884.0865,148.845 884.0865,140.94" id="Fill-19" fill="#000000" mask="url(#mask-2)"></path>
            <path d="M906.21,108.755 L917.925,108.755 L917.925,99.27 L906.21,99.27 L906.21,108.755 Z M906.21,150.64 L917.925,150.64 L917.925,113.855 L906.21,113.855 L906.21,150.64 Z" id="Fill-20" fill="#000000" mask="url(#mask-2)"></path>
            <path d="M921.4325,132.3195 C921.4325,121.2545 929.3375,112.8495 941.1175,112.8495 C952.9775,112.8495 960.7325,121.2545 960.7325,132.3195 C960.7325,143.3845 952.9775,151.7895 941.1175,151.7895 C929.3375,151.7895 921.4325,143.3845 921.4325,132.3195 M948.8775,132.3195 C948.8775,125.6395 946.1475,121.1095 941.0475,121.1095 C935.9475,121.1095 933.2875,125.6395 933.2875,132.3195 C933.2875,138.9995 935.9475,143.4545 941.0475,143.4545 C946.1475,143.4545 948.8775,138.9995 948.8775,132.3195" id="Fill-21" fill="#000000" mask="url(#mask-2)"></path>
            <path d="M964.3625,113.855 L975.6425,113.855 L975.6425,118.885 L975.8625,118.885 C978.5925,114.935 982.1075,112.775 987.2125,112.775 C995.2575,112.775 999.9975,118.525 999.9975,126.715 L999.9975,150.64 L988.2875,150.64 L988.2875,129.085 C988.2875,125.205 986.3475,122.55 982.5425,122.55 C978.6625,122.55 976.0775,125.78 976.0775,130.31 L976.0775,150.64 L964.3625,150.64 L964.3625,113.855 Z" id="Fill-22" fill="#000000" mask="url(#mask-2)"></path>
            <polygon id="Fill-23" fill="#000000" mask="url(#mask-2)" points="529.385 209.93 542.1 209.93 542.1 158.56 529.385 158.56"></polygon>
            <path d="M547.536,173.147 L558.816,173.147 L558.816,178.177 L559.031,178.177 C561.766,174.227 565.281,172.072 570.381,172.072 C578.431,172.072 583.171,177.817 583.171,186.007 L583.171,209.932 L571.461,209.932 L571.461,188.377 C571.461,184.502 569.521,181.842 565.716,181.842 C561.831,181.842 559.251,185.077 559.251,189.602 L559.251,209.932 L547.536,209.932 L547.536,173.147 Z" id="Fill-24" fill="#000000" mask="url(#mask-2)"></path>
            <path d="M586.8915,191.5405 C586.8915,180.0455 593.5015,172.0705 602.9865,172.0705 C608.1565,172.0705 611.1065,174.2255 613.2615,177.3155 L613.4765,177.3155 L613.4765,158.5605 L625.1865,158.5605 L625.1865,209.9355 L613.9815,209.9355 L613.9815,204.9755 L613.8365,204.9755 C611.6065,208.7855 607.8015,211.0855 602.9865,211.0855 C593.5765,211.0855 586.8915,203.8255 586.8915,191.5405 M613.7665,191.5405 C613.7665,185.3605 611.2515,180.9055 606.1515,180.9055 C601.4765,180.9055 598.7465,185.2205 598.7465,191.3955 C598.7465,197.7905 601.4765,201.8155 606.0015,201.8155 C610.8915,201.8155 613.7665,197.5755 613.7665,191.5405" id="Fill-25" fill="#000000" mask="url(#mask-2)"></path>
            <path d="M629.045,191.47 C629.045,180.475 636.735,172.07 647.94,172.07 C653.185,172.07 657.355,173.795 660.51,176.67 C664.895,180.695 667.055,187.085 666.98,194.56 L640.54,194.56 C641.26,199.515 643.99,202.605 648.805,202.605 C651.89,202.605 653.905,201.24 654.91,198.94 L666.335,198.94 C665.545,202.245 663.39,205.41 660.155,207.635 C657.065,209.79 653.33,211.015 648.66,211.015 C636.52,211.015 629.045,202.605 629.045,191.47 L629.045,191.47 Z M655.125,187.59 C654.695,183.21 651.965,180.405 648.155,180.405 C643.705,180.405 641.405,183.21 640.61,187.59 L655.125,187.59 Z" id="Fill-26" fill="#000000" mask="url(#mask-2)"></path>
            <polygon id="Fill-27" fill="#000000" mask="url(#mask-2)" points="677.2455 190.6055 665.6805 173.1505 679.0405 173.1505 684.5055 182.6305 684.6455 182.6305 689.8205 173.1505 702.1055 173.1505 691.1855 190.4605 703.6855 209.9355 690.1055 209.9355 684.0705 198.9405 683.9255 198.9405 677.2455 209.9355 664.4555 209.9355"></polygon>
            <path d="M27.6705,185.896 C9.7955,166.296 0.0005,139.206 0.0005,107.791 C0.0005,75.511 10.9505,46.976 30.5505,27.376 C47.5555,10.086 71.4755,-0.004 101.1605,-0.004 C154.1955,-0.004 185.8955,28.241 192.5255,71.476 L142.9555,71.476 C139.2055,54.761 125.3755,42.076 102.8905,42.076 C68.8805,42.076 51.8805,70.321 51.8805,107.791 C51.8805,145.546 71.4755,173.501 103.7555,173.501 C130.5605,173.501 146.4105,155.631 148.4255,137.476 L148.4255,136.901 L109.8105,136.901 L109.8105,99.431 L195.6955,99.431 L195.6955,210.106 L159.9605,210.106 L157.0755,185.321 L156.5005,185.321 C142.9555,206.356 122.7805,214.716 97.9905,214.716 C68.5955,214.716 44.6705,204.341 27.6705,185.896" id="Fill-28" fill="#000000" mask="url(#mask-2)"></path>
            <polygon id="Fill-29" fill="#000000" mask="url(#mask-2)" points="429.515 210.105 480.53 210.105 480.53 4.035 429.515 4.035"></polygon>
            <path d="M415.3215,99.4315 C411.8565,41.3965 374.5365,4.0365 320.2165,4.0365 L232.3065,4.0365 L232.3065,99.4315 L214.8765,99.4315 L214.8765,210.1065 L299.6115,210.1065 C325.5515,210.1065 346.3015,203.4765 362.4415,191.3715 C385.5015,173.7915 398.1815,144.6815 398.1815,108.3665 C398.1815,105.3315 398.0615,102.3615 397.8915,99.4315 L415.3215,99.4315 Z M363.6465,99.4315 L346.2165,99.4315 C346.4565,102.3215 346.5915,105.2915 346.5915,108.3665 C346.5915,146.1215 329.2965,167.1615 295.8665,167.1615 L265.8915,167.1615 L265.8915,99.4315 L283.3265,99.4315 L283.3265,46.6915 L313.8715,46.6915 C343.2415,46.6915 360.9365,67.1015 363.6465,99.4315 L363.6465,99.4315 Z" id="Fill-30" fill="#000000" mask="url(#mask-2)"></path>
        </g>
    </g>
</svg>